# xmcd CD database file
#
# Track frame offsets:
#	150
#	21437
#	44395
#	68160
#	85512
#	103782
#	122615
#	143335
#	161665
#	180245
#	199237
#	217362
#	236280
#	247915
#
# Disc length: 3536 seconds
#
# Revision: 4
# Processed by: cddbd v1.5.2PL0 Copyright (c) Steve Scherf et al.
# Submitted via: CDex 1.51
#
DISCID=b80dce0e
DTITLE=Phillip Walker - Working Girl Blues
DYEAR=1995
DGENRE=Blues
TTITLE0=Special Built Woman
TTITLE1=Hey, Hey Baby's Gone
TTITLE2=Working Girl Blues
TTITLE3=Bad Luck
TTITLE4=Brother, Go Ahead and Take Her
TTITLE5=Thanks a Lot (for the Offer)
TTITLE6=Beatrice, Beatrice
TTITLE7=The Hustle is On
TTITLE8=Hurry Back Home
TTITLE9=A Thing called the Blues
TTITLE10=I got a Problem
TTITLE11=How Long Must I Wait?
TTITLE12=Hello, My Darling
TTITLE13=My Baby's Gonna Wash Me Down
EXTD=YEAR: 1995
EXTT0=
EXTT1=
EXTT2=
EXTT3=
EXTT4=
EXTT5=
EXTT6=
EXTT7=
EXTT8=
EXTT9=
EXTT10=
EXTT11=
EXTT12=
EXTT13=
PLAYORDER=
